<svg width="362" height="248" viewBox="0 0 362 248" fill="none" xmlns="http://www.w3.org/2000/svg">
<path d="M0.325527 142.532H361.651L343.357 175.145L362 207.026H0L17.6179 175.15L0.325527 142.532Z" fill="white"/>
<path d="M45.113 37.2709C104.247 12.4691 146.993 0.0455482 181.705 0.000125105C216.387 -0.0460078 258.297 12.6671 317.462 37.2709C316.209 145.12 271.513 218.725 181.287 248C96.9095 220.398 51.3787 152.648 45.113 37.2709Z" fill="white"/>
<path d="M71.8467 55.2557C117.742 36.0745 154.161 26.4663 181.103 26.4312C208.021 26.3955 244.439 35.8917 290.359 54.9198C284.59 140.5 248.171 195.691 181.103 220.494C116.439 197.479 80.0201 142.4 71.8467 55.2557Z" fill="#00C0F3"/>
<path d="M181.287 26.7656L290.544 55.2541C284.774 140.834 248.356 196.026 181.287 220.828C181.287 178.721 181.287 114.033 181.287 26.7656Z" fill="#A1EBFF"/>
<path fill-rule="evenodd" clip-rule="evenodd" d="M282.1 60.0747C239.028 42.6463 205.522 34.3261 181.175 34.3584C156.829 34.3901 123.363 42.7964 80.3727 60.3331C84.7918 100.312 95.4399 132.587 111.941 157.543C128.658 182.825 151.625 200.974 181.116 212.039C211.893 200.115 233.265 182.168 249.984 156.83C266.456 131.868 278.76 99.2742 282.1 60.0747ZM181.154 18.5041C209.652 18.4663 247.233 28.4467 293.44 47.5935L298.691 49.7695L298.308 55.4545C295.357 99.2196 282.327 136.546 263.17 165.579C243.954 194.7 218.873 214.998 183.9 227.931L181.216 228.924L178.52 227.964C144.646 215.908 117.96 195.337 98.7637 166.304C79.6392 137.38 68.2082 100.464 64.0377 55.998L63.4924 50.1848L68.867 47.9386C115.049 28.6376 152.631 18.5413 181.154 18.5041Z" fill="#0F3D58"/>
<path fill-rule="evenodd" clip-rule="evenodd" d="M180.936 10.0371C165.924 10.0371 121.124 14.5618 56.6662 44.1405L55.1382 44.8417L55.2062 46.5231C59.4175 150.666 112.574 216.994 180.211 237.438L180.936 237.545L181.66 237.438C249.298 216.994 302.454 150.666 306.665 46.5231L306.733 44.8417L305.205 44.1405C240.747 14.5618 195.948 10.0371 180.936 10.0371ZM180.936 15.0557C166.822 15.0557 123.323 19.3277 60.2871 48.0025C64.9123 149.098 116.436 212.562 180.936 232.412C245.435 212.562 296.959 149.098 301.584 48.0025C238.548 19.3277 195.049 15.0557 180.936 15.0557Z" fill="#0F3D58"/>
<path d="M132.875 40.1484L132.827 40.1502C130.857 40.2261 127.712 40.5829 124.508 41.4091C121.367 42.2187 117.82 43.5654 115.356 45.8265C112.791 48.1809 110.742 50.3256 109.117 52.7666C107.475 55.2327 106.33 57.9009 105.439 61.2489C104.108 66.2456 98.2108 87.2722 95.4228 97.1813L95.4127 97.2171L95.4037 97.2531C94.5555 100.65 93.3298 106.151 92.3983 111.662C91.4857 117.061 90.7967 122.789 91.1607 126.514C91.3985 129.769 92.5331 134.801 95.1545 139.715C97.7981 144.671 102.037 149.653 108.544 152.445C114.983 155.207 121.484 155.145 126.911 154.006C132.315 152.871 136.803 150.642 139.369 148.851L139.461 148.787L139.548 148.714C143.43 145.449 149.056 138.675 151.261 126.757L151.268 126.719L151.273 126.682C151.627 124.382 152.369 123.262 152.979 122.68C153.543 122.142 154.203 121.865 154.911 121.7H207.845C208.552 121.865 209.212 122.142 209.777 122.68C210.386 123.262 211.129 124.382 211.482 126.682L211.488 126.719L211.495 126.757C213.699 138.675 219.326 145.449 223.208 148.714L223.294 148.787L223.387 148.851C225.953 150.642 230.441 152.871 235.845 154.006C241.272 155.145 247.773 155.207 254.212 152.445C260.719 149.653 264.957 144.671 267.601 139.715C270.223 134.801 271.357 129.769 271.595 126.514C271.959 122.789 271.27 117.061 270.357 111.662C269.426 106.151 268.2 100.65 267.352 97.2531L267.343 97.2171L267.333 97.1813C264.545 87.2722 258.648 66.2456 257.317 61.2489C256.425 57.9009 255.281 55.2327 253.639 52.7666C252.014 50.3256 249.965 48.1809 247.399 45.8265C244.935 43.5654 241.388 42.2187 238.248 41.4091C235.043 40.5829 231.899 40.2261 229.929 40.1502L229.881 40.1484H181.378V52.8472L224.312 52.7666C225.968 52.8342 228.729 53.1474 231.527 53.8688C234.416 54.6135 236.995 55.7064 238.541 57.1256C240.988 59.3715 242.699 61.1998 243.997 63.1501C245.279 65.0752 246.224 67.2164 247.003 70.1416C248.344 75.1759 252.091 89.0685 254.876 98.9698C255.699 102.267 256.89 107.62 257.793 112.963C258.716 118.42 259.279 123.546 258.982 126.514L258.979 126.55L258.976 126.585C258.791 129.186 257.154 131.65 254.876 135.919C251.046 139.79 255.393 137.563 250.204 139.79C244.947 142.045 239.543 142.039 234.84 141.052C230.185 140.075 231.377 139.42 229.325 138.01C226.243 135.388 225.604 135.585 223.645 125.043C223.16 121.927 220.041 115.257 218.464 113.754C216.895 112.258 209.899 110.249 208.603 109.99L208.36 109.941H154.396L154.153 109.99C152.856 110.249 146.788 110.813 145.219 112.309C143.642 113.813 138.331 121.927 137.845 125.043C135.887 135.585 133.826 136.224 130.744 138.847C128.692 140.257 127.88 140.797 123.225 141.774C118.523 142.761 118.04 143.193 112.783 140.938C107.594 138.711 107.978 138.745 105.714 134.5C103.437 130.231 103.192 129.429 103.006 126.828L103.004 126.792L103 126.757C102.704 123.789 103.266 118.663 104.189 113.206C105.092 107.863 106.178 105.297 107 102C109.786 92.0987 115.659 71.0343 117 66C117.779 63.0748 118.218 60.9251 119.5 59C120.799 57.0497 119.525 57.7963 121.972 55.5504C123.519 54.1312 123.261 54.6941 126.149 53.9494C128.947 53.228 131.709 52.9148 133.364 52.8472H181.378V40.1484H132.875Z" fill="white"/>
<path d="M132.875 40.1484L132.827 40.1502C130.857 40.2261 127.712 40.5829 124.508 41.4091C121.367 42.2187 117.82 43.5654 115.356 45.8265C112.791 48.1809 110.742 50.3256 109.117 52.7666C107.475 55.2327 106.33 57.9009 105.439 61.2489C104.108 66.2456 98.2108 87.2722 95.4228 97.1813L95.4127 97.2171L95.4037 97.2531C94.5555 100.65 93.3298 106.151 92.3983 111.662C91.4857 117.061 90.7967 122.789 91.1607 126.514C91.3985 129.769 92.5331 134.801 95.1545 139.715C97.7981 144.671 102.037 149.653 108.544 152.445C114.983 155.207 121.484 155.145 126.911 154.006C132.315 152.871 136.803 150.642 139.369 148.851L139.461 148.787L139.548 148.714C143.43 145.449 149.056 138.675 151.261 126.757L151.268 126.719L151.273 126.682C151.627 124.382 152.369 123.262 152.979 122.68C153.543 122.142 154.203 121.865 154.911 121.7H207.845C208.552 121.865 209.212 122.142 209.777 122.68C210.386 123.262 211.129 124.382 211.482 126.682L211.488 126.719L211.495 126.757C213.699 138.675 219.326 145.449 223.208 148.714L223.294 148.787L223.387 148.851C225.953 150.642 230.441 152.871 235.845 154.006C241.272 155.145 247.773 155.207 254.212 152.445C260.719 149.653 264.957 144.671 267.601 139.715C270.223 134.801 271.357 129.769 271.595 126.514C271.959 122.789 271.27 117.061 270.357 111.662C269.426 106.151 268.2 100.65 267.352 97.2531L267.343 97.2171L267.333 97.1813C264.545 87.2722 258.648 66.2456 257.317 61.2489C256.425 57.9009 255.281 55.2327 253.639 52.7666C252.014 50.3256 249.965 48.1809 247.399 45.8265C244.935 43.5654 241.388 42.2187 238.248 41.4091C235.043 40.5829 231.899 40.2261 229.929 40.1502L229.881 40.1484H181.378V45.1669H229.783C231.439 45.2345 234.2 45.5477 236.998 46.2691C239.886 47.0138 242.466 48.1068 244.012 49.5259C246.459 51.7718 248.17 53.6001 249.468 55.5504C250.75 57.4755 251.695 59.6167 252.474 62.542C253.815 67.5762 259.712 88.6048 262.498 98.5061C263.32 101.803 264.512 107.157 265.415 112.5C266.337 117.957 266.9 123.083 266.604 126.05L266.6 126.086L266.598 126.121C266.412 128.722 265.457 133.082 263.18 137.351C260.915 141.596 257.426 145.605 252.237 147.832C246.98 150.088 241.576 150.081 236.873 149.094C232.218 148.117 228.397 146.208 226.345 144.798C223.263 142.176 218.389 136.422 216.43 125.879C215.945 122.763 214.811 120.55 213.234 119.046C211.665 117.55 209.899 116.99 208.603 116.73L208.36 116.681H154.396L154.153 116.73C152.856 116.99 151.091 117.55 149.522 119.046C147.945 120.55 146.811 122.763 146.325 125.879C144.367 136.422 139.492 142.176 136.411 144.798C134.358 146.208 130.537 148.117 125.882 149.094C121.18 150.081 115.775 150.088 110.518 147.832C105.33 145.605 101.841 141.596 99.576 137.351C97.2988 133.082 96.3435 128.722 96.158 126.121L96.1554 126.086L96.1519 126.05C95.8555 123.083 96.4182 117.957 97.3406 112.5C98.2437 107.157 99.4354 101.803 100.258 98.5061C103.043 88.6048 108.941 67.5762 110.282 62.542C111.061 59.6167 112.005 57.4755 113.287 55.5504C114.586 53.6001 116.296 51.7718 118.744 49.5259C120.29 48.1068 122.869 47.0138 125.758 46.2691C128.556 45.5477 131.317 45.2345 132.973 45.1669H181.378V40.1484H132.875Z" fill="#0F3D58"/>
<path fill-rule="evenodd" clip-rule="evenodd" d="M132.821 51.0219L132.725 51.0293C130.65 51.1891 127.489 51.842 124.519 53.3092C121.558 54.7721 118.468 57.2116 117.172 61.1019C115.143 67.1983 109.33 87.7391 106.693 97.1865L106.681 97.2302L106.671 97.2744C105.757 101.072 104.431 107.06 103.414 112.702C102.906 115.521 102.47 118.284 102.203 120.659C101.945 122.956 101.814 125.134 102.031 126.655C102.931 132.963 106.671 141.852 116.993 143.821C124.999 145.348 131.414 141.356 133.803 138.998C135.502 137.453 138.536 133.254 139.958 126.844C141.271 120.931 142.652 117.752 143.029 117.09C143.86 115.634 146.798 112.267 151.821 111.189C152.352 111.075 153.885 110.962 156.305 110.889C158.62 110.818 161.508 110.787 164.565 110.778C168.308 110.767 172.229 110.787 175.634 110.805H175.635C177.821 110.816 179.795 110.826 181.372 110.826C182.948 110.826 184.922 110.816 187.108 110.805H187.11C190.514 110.787 194.435 110.767 198.179 110.778C201.235 110.787 204.123 110.818 206.439 110.889C208.858 110.962 210.391 111.075 210.922 111.189C215.945 112.267 218.883 115.634 219.714 117.09C220.091 117.752 221.472 120.931 222.785 126.844C224.208 133.254 227.241 137.453 228.94 138.998C231.329 141.356 237.744 145.348 245.751 143.821C256.072 141.852 259.812 132.963 260.712 126.655C260.929 125.134 260.798 122.956 260.54 120.659C260.273 118.284 259.837 115.521 259.329 112.702C258.313 107.06 256.986 101.072 256.073 97.2744L256.062 97.2302L256.05 97.1865C253.413 87.7391 247.6 67.1983 245.571 61.1019C244.275 57.2116 241.186 54.7721 238.224 53.3092C235.254 51.842 232.093 51.1891 230.018 51.0293L229.923 51.0219H132.821ZM133.018 56.0405C131.466 56.1725 128.999 56.6923 126.737 57.8098C124.421 58.9538 122.638 60.5571 121.928 62.6889C119.95 68.6279 114.193 88.9628 111.533 98.4931C110.637 102.225 109.338 108.09 108.347 113.593C107.849 116.357 107.434 118.999 107.184 121.22C106.926 123.518 106.876 125.124 106.993 125.945C107.764 131.347 110.708 137.513 117.93 138.891C123.903 140.03 128.759 136.952 130.309 135.399L130.361 135.347L130.416 135.298C131.235 134.569 133.83 131.319 135.065 125.756C136.426 119.625 137.941 115.89 138.677 114.6C140.074 112.152 144.098 107.713 150.771 106.282C151.839 106.053 153.873 105.942 156.153 105.872C158.536 105.8 161.478 105.769 164.549 105.76C168.287 105.748 172.288 105.769 175.726 105.786L175.735 105.786C177.91 105.798 179.859 105.808 181.372 105.808C182.884 105.808 184.833 105.798 187.008 105.786L187.017 105.786C190.455 105.769 194.457 105.748 198.194 105.76C201.265 105.769 204.207 105.8 206.591 105.872C208.87 105.942 210.904 106.053 211.972 106.282C218.645 107.713 222.669 112.152 224.066 114.6C224.802 115.89 226.317 119.625 227.678 125.756C228.913 131.319 231.508 134.569 232.327 135.298L232.382 135.347L232.434 135.399C233.984 136.952 238.841 140.03 244.813 138.891C252.035 137.513 254.979 131.347 255.75 125.945C255.867 125.124 255.817 123.518 255.559 121.22C255.309 118.999 254.894 116.357 254.396 113.593C253.405 108.09 252.106 102.225 251.21 98.4931C248.55 88.9628 242.793 68.6279 240.815 62.6889C240.106 60.5571 238.322 58.9538 236.006 57.8098C233.744 56.6923 231.277 56.1725 229.725 56.0405H133.018Z" fill="#0F3D58"/>
<ellipse cx="209.274" cy="80.715" rx="4.59484" ry="4.60034" fill="white"/>
<ellipse cx="220.135" cy="92.425" rx="4.59484" ry="4.60034" fill="white"/>
<ellipse cx="220.135" cy="69.8415" rx="4.59484" ry="4.60034" fill="white"/>
<ellipse cx="230.995" cy="80.715" rx="4.59484" ry="4.60034" fill="white"/>
<path d="M137.845 64.8229V74.86H126.985V86.9882H137.845V97.8617H149.959V86.9882H160.819V74.86H149.123V64.8229H137.845Z" fill="white"/>
<path fill-rule="evenodd" clip-rule="evenodd" d="M135.339 61.8954V72.769H124.478V89.4975H135.339V100.371H152.047V89.4975H162.908V72.769H152.047V61.8954H135.339ZM140.351 84.4789V86.9882V95.3524H147.035V86.9882V84.4789H149.541H157.895V77.7875H149.541H147.035V75.2782V66.914H140.351V75.2782V77.7875H137.845H129.491V84.4789H137.845H140.351Z" fill="#0F3D58"/>
<path fill-rule="evenodd" clip-rule="evenodd" d="M212.11 70.1903C212.11 65.7391 215.71 62.1249 220.158 62.1249C224.606 62.1249 228.205 65.7396 228.205 70.1903C228.205 71.6265 227.83 72.9756 227.173 74.1443C228.338 73.4873 229.682 73.1125 231.115 73.1125C235.563 73.1125 239.163 76.7269 239.163 81.1787C239.163 85.6298 235.563 89.244 231.115 89.244C229.682 89.244 228.338 88.8691 227.173 88.2121C227.83 89.3809 228.205 90.7301 228.205 92.1662C228.205 96.6169 224.606 100.232 220.158 100.232C215.71 100.232 212.11 96.6174 212.11 92.1662C212.11 90.7302 212.485 89.3812 213.142 88.2125C211.977 88.8693 210.633 89.244 209.201 89.244C204.753 89.244 201.153 85.6298 201.153 81.1787C201.153 76.7269 204.753 73.1125 209.201 73.1125C210.633 73.1125 211.977 73.4872 213.141 74.1439C212.485 72.9753 212.11 71.6264 212.11 70.1903ZM216.216 77.2247C216.873 78.3934 217.248 79.7425 217.248 81.1787C217.248 82.6145 216.873 83.9634 216.216 85.1319C217.381 84.4749 218.725 84.1 220.158 84.1C221.59 84.1 222.934 84.4748 224.098 85.1316C223.442 83.9631 223.067 82.6144 223.067 81.1787C223.067 79.7426 223.442 78.3937 224.098 77.2251C222.934 77.8818 221.59 78.2565 220.158 78.2565C218.725 78.2565 217.381 77.8816 216.216 77.2247ZM220.158 67.269C218.554 67.269 217.248 68.5734 217.248 70.1903C217.248 71.8083 218.555 73.1125 220.158 73.1125C221.761 73.1125 223.067 71.8088 223.067 70.1903C223.067 68.5729 221.761 67.269 220.158 67.269ZM209.201 78.2565C207.597 78.2565 206.291 79.5607 206.291 81.1787C206.291 82.7955 207.597 84.1 209.201 84.1C210.804 84.1 212.11 82.7961 212.11 81.1787C212.11 79.5602 210.803 78.2565 209.201 78.2565ZM231.115 78.2565C229.512 78.2565 228.205 79.5607 228.205 81.1787C228.205 82.7955 229.511 84.1 231.115 84.1C232.718 84.1 234.025 82.7955 234.025 81.1787C234.025 79.5607 232.718 78.2565 231.115 78.2565ZM220.158 89.244C218.555 89.244 217.248 90.5488 217.248 92.1662C217.248 93.7831 218.554 95.0876 220.158 95.0876C221.761 95.0876 223.067 93.7836 223.067 92.1662C223.067 90.5483 221.76 89.244 220.158 89.244Z" fill="#0F3D58"/>
<path fill-rule="evenodd" clip-rule="evenodd" d="M13.4352 150.252H348.786L334.777 175.225L348.859 199.306H13.3667L26.6756 175.226L13.4352 150.252Z" fill="#0F3D58"/>
<path d="M54.152 183.932C51.344 183.932 49.832 181.484 49.832 174.932C49.832 167.768 51.704 165.464 54.296 165.464C56.492 165.464 57.896 166.76 57.896 171.08L63.332 170.684C63.332 164.708 60.416 161.036 54.656 161.036C48.176 161.036 44 165.536 44 175.04C44 183.968 47.348 188.36 53.828 188.36C59.444 188.36 62.576 185.66 63.08 179.216L57.752 178.856C57.572 182.132 56.528 183.932 54.152 183.932Z" fill="white"/>
<path d="M91.5675 168.74C90.9915 163.448 87.8955 161 82.7835 161C77.4555 161 73.6395 163.916 73.6395 168.848C73.6395 174.572 77.8875 175.724 81.4515 176.84C84.0075 177.596 86.2035 178.388 86.2035 180.872C86.2035 182.852 85.0155 183.896 82.8195 183.896C79.9035 183.896 78.9675 182.276 78.6435 179.324L72.9915 180.08C73.6035 185.768 76.7715 188.36 82.6755 188.36C87.7515 188.36 91.8555 185.552 91.8555 179.828C91.8555 174.068 87.3195 173.024 83.7555 171.908C81.3795 171.152 79.3995 170.396 79.3995 168.164C79.3995 166.436 80.4795 165.428 82.4955 165.428C84.6195 165.428 85.8435 166.688 86.1675 169.712L91.5675 168.74Z" fill="white"/>
<path d="M101.899 178.46H104.239C112.447 178.46 113.851 173.492 113.851 169.388C113.851 164.528 111.439 161.504 105.211 161.504H96.391V187.928H101.899V178.46ZM101.899 174.176V165.932H104.455C107.191 165.932 108.271 167.264 108.271 169.82C108.271 173.06 106.687 174.176 103.663 174.176H101.899Z" fill="white"/>
<path d="M125.048 165.212H127.604V161.504H117.056V165.212H119.576V184.22H117.02V187.928H127.604V184.22H125.048V165.212Z" fill="white"/>
<path d="M137.933 177.272H140.021L144.737 187.928H150.713L145.385 176.48C149.093 175.04 149.885 171.908 149.885 168.992C149.885 164.492 147.437 161.504 141.245 161.504H132.425V187.928H137.933V177.272ZM137.933 172.988V165.932H140.489C143.081 165.932 144.305 167.012 144.305 169.352C144.305 172.268 142.685 172.988 139.805 172.988H137.933Z" fill="white"/>
<path d="M168.374 172.232H160.274V166.04H169.382V161.504H154.766V187.928H169.994V183.356H160.274V176.624H168.374V172.232Z" fill="white"/>
<path d="M190.915 178.748H194.983C194.875 182.348 193.075 184.004 190.771 184.004C187.855 184.004 186.163 181.628 186.163 174.968C186.163 167.768 187.999 165.464 190.663 165.464C192.715 165.464 194.083 166.652 194.155 171.08L199.555 170.684C199.555 164.456 196.603 161.036 191.059 161.036C184.615 161.036 180.295 165.32 180.295 175.22C180.295 183.896 183.643 188.36 189.907 188.36C192.319 188.36 194.479 187.352 195.811 185.48L196.423 188.36H199.951V174.644H190.915V178.748Z" fill="white"/>
<path d="M210.631 161.504L202.747 187.928H208.291L210.019 181.808H218.155L219.955 187.928H225.643L217.579 161.504H210.631ZM217.039 177.416H211.063L213.979 166.796H214.087L217.039 177.416Z" fill="white"/>
<path d="M244.457 187.928L249.101 168.272H249.281V187.928H254.465V161.504H246.473L241.973 182.06H241.865L237.185 161.504H229.013V187.928H234.197V168.272H234.341L239.201 187.928H244.457Z" fill="white"/>
<path d="M267.268 165.212H269.824V161.504H259.276V165.212H261.796V184.22H259.24V187.928H269.824V184.22H267.268V165.212Z" fill="white"/>
<path d="M294.192 187.928V161.504H289.188V179.324H289.08L281.16 161.504H274.644V187.928H279.684V170.216H279.792L288.072 187.928H294.192Z" fill="white"/>
<path d="M309.441 178.748H313.509C313.401 182.348 311.601 184.004 309.297 184.004C306.381 184.004 304.689 181.628 304.689 174.968C304.689 167.768 306.525 165.464 309.189 165.464C311.241 165.464 312.609 166.652 312.681 171.08L318.081 170.684C318.081 164.456 315.129 161.036 309.585 161.036C303.141 161.036 298.821 165.32 298.821 175.22C298.821 183.896 302.169 188.36 308.433 188.36C310.845 188.36 313.005 187.352 314.337 185.48L314.949 188.36H318.477V174.644H309.441V178.748Z" fill="white"/>
</svg>
