<svg width="263" height="103" viewBox="0 0 263 103" fill="none" xmlns="http://www.w3.org/2000/svg">
<path d="M100.731 51.2843V51.1529C100.731 42.9561 107.043 36.162 115.809 36.162C120.193 36.162 123.261 37.4332 125.716 39.4933C126.242 39.9317 126.943 40.8522 126.943 42.1671C126.943 44.1396 125.365 45.6738 123.393 45.6738C122.384 45.6738 121.595 45.2793 121.113 44.8848C119.579 43.7013 118.001 42.9123 115.722 42.9123C111.47 42.9123 108.402 46.6381 108.402 51.0652V51.1529C108.402 55.7553 111.426 59.4372 116.029 59.4372C118.308 59.4372 120.017 58.6044 121.683 57.2894C122.078 56.9388 122.867 56.5443 123.787 56.5443C125.628 56.5443 127.075 58.0346 127.075 59.8756C127.075 60.8837 126.636 61.7166 125.935 62.3302C123.48 64.5657 120.412 66.1437 115.634 66.1437C107.087 66.1875 100.731 59.4811 100.731 51.2843ZM198.741 61.9357C198.741 64.0835 200.494 65.8368 202.642 65.8368C204.79 65.8368 206.543 64.1274 206.543 61.9357V40.2823C206.543 38.1345 204.79 36.3812 202.642 36.3812C200.494 36.3812 198.741 38.1345 198.741 40.2823V61.9357ZM240.426 48.7421C241.04 44.9286 243.407 42.4301 246.957 42.4301C250.639 42.4301 252.875 45.0601 253.357 48.7421H240.426ZM247.79 66.1875C252.042 66.1875 255.373 64.8725 257.871 62.5932C258.441 62.0672 258.88 61.2782 258.88 60.2701C258.88 58.5168 257.609 57.2018 255.855 57.2018C255.022 57.2018 254.496 57.4209 253.927 57.8154C252.217 59.1304 250.245 59.8756 247.878 59.8756C244.064 59.8756 241.303 57.7716 240.514 53.8267H257.17C259.186 53.8267 260.808 52.3363 260.808 50.1009C260.808 43.9643 256.469 36.162 246.957 36.162C238.629 36.162 232.755 42.9123 232.755 51.1529V51.2405C232.799 60.0947 239.199 66.1875 247.79 66.1875ZM228.372 36.3812C225.172 36.3812 222.586 38.3537 221.008 41.1152V40.2823C221.008 38.1345 219.255 36.3812 217.107 36.3812C214.959 36.3812 213.206 38.1345 213.206 40.2823V61.9357C213.206 64.0835 214.959 65.8368 217.107 65.8368C219.255 65.8368 221.008 64.0835 221.008 61.9357V51.1967C221.008 47.1641 222.455 45.6738 226.969 44.4903C231.177 43.3944 232.492 42.3863 232.492 40.2385C232.448 37.8715 230.783 36.3812 228.372 36.3812ZM151.621 48.0407C148.465 46.9887 145.397 46.1121 145.44 44.4464V44.3588C145.44 43.1315 146.755 42.5178 148.859 42.474C150.613 42.474 152.585 43.0876 154.864 44.2273C155.39 44.4903 155.785 44.6218 156.399 44.6218C158.24 44.6218 159.686 43.2191 159.686 41.3781C159.686 39.9755 158.941 38.8797 157.757 38.3098C154.952 36.9072 152.059 36.162 149.035 36.162C143.249 36.162 138.208 39.2742 138.164 45.1478V45.2354C138.164 50.9337 143.161 52.7308 147.15 54.0458C150.35 55.0978 153.549 55.7991 153.462 57.5524V57.6401C153.462 58.9113 152.059 59.7441 149.648 59.7441C147.325 59.7441 144.608 58.9113 141.89 57.2018C141.452 56.9388 140.882 56.7634 140.268 56.7634C138.427 56.7634 137.068 58.1661 137.068 60.0071C137.068 61.3221 137.77 62.2864 138.603 62.8124C142.065 65.004 145.879 66.1437 149.473 66.1437C155.61 66.1437 160.87 63.5575 160.87 57.1579V57.0264C160.826 51.7227 155.916 49.531 151.621 48.0407ZM181.296 36.162C188.265 36.162 193.876 42.6055 193.876 51.109C193.876 59.6564 188.221 66.056 181.296 66.056C178.184 66.056 175.334 64.7849 173.143 62.5932V72.4118C173.143 74.5596 171.389 76.3129 169.242 76.3129C167.094 76.3129 165.341 74.6034 165.341 72.4118V40.2823C165.341 38.1345 167.05 36.3812 169.242 36.3812C171.214 36.3812 172.792 37.8277 173.099 39.6687C175.291 37.477 178.14 36.162 181.296 36.162ZM179.805 58.9989C183.575 58.9989 186.599 55.7553 186.599 51.109C186.599 46.4627 183.575 43.2191 179.805 43.2191C176.036 43.2191 173.055 46.4627 173.055 51.109C173.055 55.7553 176.036 58.9989 179.805 58.9989ZM72.6342 42.9561L90.9125 21.1274C91.833 20.0316 92.2713 18.8481 92.1836 17.5769C92.0959 16.4811 91.57 15.473 90.6933 14.7278C89.9043 14.0703 88.9838 13.7197 87.9757 13.7197C87.0113 13.7197 85.6525 14.0265 84.4252 15.5168L68.6892 33.3129L72.0205 19.3303C72.415 17.9276 72.2835 16.6565 71.626 15.6045C71.1001 14.6401 70.1796 13.9388 69.0399 13.6758C68.6892 13.5882 68.2948 13.5443 67.9441 13.5443C66.3661 13.5443 64.3936 14.4648 63.6923 17.1386L59.9227 31.0774L53.7861 3.90112C53.2163 1.00816 51.1123 0 49.4905 0C49.2275 0 48.9207 0.0438381 48.6577 0.0876709C46.9482 0.438333 45.677 1.70948 45.3264 3.41896C45.1949 4.07645 45.1949 4.77778 45.3702 5.56677L50.7616 32.2609L44.0552 23.6259C42.7841 21.9164 41.2938 21.5657 40.2856 21.5657C39.3651 21.5657 38.5323 21.8726 37.7871 22.3986C36.3845 23.4505 35.7708 25.16 36.2092 26.8257C36.3845 27.4832 36.6913 28.0968 37.0858 28.7105L43.6607 37.8715L24.6811 28.316C23.8483 27.8776 23.0593 27.6585 22.2265 27.6585C20.6485 27.6585 19.2459 28.4913 18.5007 29.9378C17.9747 30.9459 17.8432 32.0418 18.1939 33.0937C18.4569 33.9266 19.0705 35.0662 20.6485 35.899L39.3651 45.8491C39.3651 45.8491 4.73723 44.6218 4.64957 44.6218C1.71277 44.6218 0.0909585 46.6819 0.00329296 48.7859C-0.0405398 49.9255 0.353955 50.9775 1.14294 51.8103C1.97577 52.687 3.15925 53.213 4.51807 53.2568L39.5405 55.1855L31.5191 58.9989C30.8177 59.3057 30.2479 59.7002 29.7657 60.2262C28.5384 61.4974 28.2316 63.2507 28.9329 64.8725C29.6342 66.4505 31.0807 67.371 32.7902 67.371C33.4915 67.371 34.2367 67.1956 34.938 66.8888L42.8279 63.5575L24.9003 84.7288C23.9798 85.8246 23.5415 87.0519 23.6292 88.2792C23.7168 89.375 24.2428 90.3832 25.1195 91.1283C25.9085 91.7858 26.8289 92.1365 27.8371 92.1365C28.7576 92.1365 30.1602 91.8297 31.4314 90.3394L49.9288 69.4749L46.9482 81.0906C46.1592 84.0713 47.8248 86.2191 49.885 86.7451C50.2356 86.8327 50.6301 86.8766 50.9808 86.8766C52.515 86.8766 54.5313 85.9561 55.2326 83.3261L58.6515 71.7543L64.3498 98.7553C64.9196 101.648 67.0236 102.656 68.6454 102.656C68.9084 102.656 69.1714 102.613 69.4782 102.569C71.1877 102.218 72.4589 100.991 72.8095 99.2374C72.941 98.5799 72.941 97.8786 72.8095 97.1334L67.5496 69.5188L77.4996 82.1865C78.7708 83.8959 80.2611 84.2466 81.2693 84.2466C82.1897 84.2466 83.0226 83.9398 83.7677 83.4138C85.1704 82.3618 85.784 80.6523 85.3457 78.9867C85.1704 78.3292 84.8635 77.7155 84.4252 77.1457L72.1082 60.2262C72.1082 60.2262 70.7056 58.1223 68.8207 60.1824C66.1908 62.9877 62.5965 64.9163 58.4324 64.9163C50.8055 64.9163 44.6251 58.7359 44.6251 51.109C44.6251 43.4821 50.8055 37.3017 58.4324 37.3017C62.991 37.3017 67.0674 39.5372 69.5659 42.9561C69.5659 42.8685 71.1 44.7971 72.6342 42.9561Z" fill="#00B8EE"/>
<path d="M259.493 37.9153C259.493 36.951 260.282 36.1182 261.247 36.1182C262.255 36.1182 263 36.9072 263 37.8715C263 38.8358 262.211 39.6248 261.247 39.6248C260.282 39.6686 259.493 38.8796 259.493 37.9153ZM262.825 37.9153C262.825 37.0387 262.167 36.3373 261.291 36.3373C260.414 36.3373 259.756 37.0387 259.756 37.9153C259.756 38.792 260.414 39.4933 261.291 39.4933C262.123 39.4933 262.825 38.792 262.825 37.9153ZM260.545 37.214C260.545 37.0825 260.633 36.9948 260.765 36.9948H261.378C261.817 36.9948 262.123 37.214 262.123 37.6085C262.123 37.8715 261.992 38.0906 261.773 38.1783L262.036 38.529C262.08 38.5728 262.08 38.6166 262.08 38.7043C262.08 38.8358 261.992 38.9235 261.86 38.9235C261.773 38.9235 261.729 38.8796 261.685 38.8358L261.247 38.3098H260.94V38.7043C260.94 38.8358 260.852 38.9235 260.721 38.9235C260.589 38.9235 260.502 38.8358 260.502 38.7043V37.214H260.545ZM261.378 37.8715C261.597 37.8715 261.685 37.7838 261.685 37.6085C261.685 37.4332 261.554 37.3455 261.378 37.3455H260.984V37.8715H261.378V37.8715Z" fill="#00B8EE"/>
</svg>
