<svg width="323" height="323" viewBox="0 0 323 323" fill="none" xmlns="http://www.w3.org/2000/svg">
<g clip-path="url(#clip0_134_372)">
<path d="M1085.06 370.998L94.1292 -619.937" stroke="#F04F23" stroke-width="8"/>
<path d="M1102 346.303L111.065 -644.632" stroke="#F04F23" stroke-width="8"/>
<path d="M1068.13 395.746L77.1947 -595.189" stroke="#F04F23" stroke-width="8"/>
<path d="M1051.19 420.495L60.2591 -570.44" stroke="#F04F23" stroke-width="8"/>
<path d="M1034.26 445.244L43.3236 -545.691" stroke="#F04F23" stroke-width="8"/>
<path d="M991.382 444.051L26.3889 -520.942" stroke="#F04F23" stroke-width="8"/>
<path d="M1000.39 494.741L9.45346 -496.194" stroke="#F04F23" stroke-width="8"/>
<path d="M983.453 519.49L-7.48209 -471.445" stroke="#F04F23" stroke-width="8"/>
<path d="M966.518 544.239L-24.4176 -446.696" stroke="#F04F23" stroke-width="8"/>
<path d="M949.582 568.987L-41.3532 -421.948" stroke="#F04F23" stroke-width="8"/>
<path d="M932.647 593.736L-58.2878 -397.199" stroke="#F04F23" stroke-width="8"/>
<path d="M915.712 618.485L-75.2233 -372.45" stroke="#F04F23" stroke-width="8"/>
<path d="M898.777 643.234L-92.1579 -347.701" stroke="#F04F23" stroke-width="8"/>
<path d="M866.147 652.289L-109.094 -322.952" stroke="#F04F23" stroke-width="8"/>
<path d="M823.838 651.664L-126.029 -298.203" stroke="#F04F23" stroke-width="8"/>
<path d="M746.807 658L-159.9 -248.706" stroke="#F04F23" stroke-width="8"/>
<path d="M681.785 634.662L-176.834 -223.957" stroke="#F04F23" stroke-width="8"/>
<path d="M620.182 614.742L-193.77 -199.209" stroke="#F04F23" stroke-width="8"/>
<path d="M749.699 619.209L-142.965 -273.455" stroke="#F04F23" stroke-width="8"/>
</g>
<defs>
<clipPath id="clip0_134_372">
<rect width="323" height="323" fill="white" transform="translate(323 323) rotate(-180)"/>
</clipPath>
</defs>
</svg>
