<svg width="323" height="323" viewBox="0 0 323 323" fill="none" xmlns="http://www.w3.org/2000/svg">
<g clip-path="url(#clip0_134_372)">
<path d="M-762.064 -47.998L228.871 942.937" stroke="#F04F23" stroke-width="8"/>
<path d="M-779 -23.3027L211.935 967.632" stroke="#F04F23" stroke-width="8"/>
<path d="M-745.13 -72.7461L245.805 918.189" stroke="#F04F23" stroke-width="8"/>
<path d="M-728.194 -97.4951L262.741 893.44" stroke="#F04F23" stroke-width="8"/>
<path d="M-711.259 -122.244L279.676 868.691" stroke="#F04F23" stroke-width="8"/>
<path d="M-668.382 -121.051L296.611 843.942" stroke="#F04F23" stroke-width="8"/>
<path d="M-677.389 -171.741L313.547 819.194" stroke="#F04F23" stroke-width="8"/>
<path d="M-660.453 -196.49L330.482 794.445" stroke="#F04F23" stroke-width="8"/>
<path d="M-643.518 -221.239L347.418 769.696" stroke="#F04F23" stroke-width="8"/>
<path d="M-626.582 -245.987L364.353 744.948" stroke="#F04F23" stroke-width="8"/>
<path d="M-609.647 -270.736L381.288 720.199" stroke="#F04F23" stroke-width="8"/>
<path d="M-592.712 -295.485L398.223 695.45" stroke="#F04F23" stroke-width="8"/>
<path d="M-575.777 -320.234L415.158 670.701" stroke="#F04F23" stroke-width="8"/>
<path d="M-543.147 -329.289L432.094 645.952" stroke="#F04F23" stroke-width="8"/>
<path d="M-500.838 -328.664L449.029 621.203" stroke="#F04F23" stroke-width="8"/>
<path d="M-423.807 -335L482.9 571.706" stroke="#F04F23" stroke-width="8"/>
<path d="M-358.785 -311.662L499.834 546.957" stroke="#F04F23" stroke-width="8"/>
<path d="M-297.182 -291.742L516.77 522.209" stroke="#F04F23" stroke-width="8"/>
<path d="M-426.699 -296.209L465.965 596.455" stroke="#F04F23" stroke-width="8"/>
</g>
<defs>
<clipPath id="clip0_134_372">
<rect width="323" height="323" fill="white"/>
</clipPath>
</defs>
</svg>
