<?xml version="1.0" encoding="UTF-8" standalone="no"?>
<!-- Created with Inkscape (http://www.inkscape.org/) -->

<svg
   version="1.1"
   id="svg1"
   width="1440"
   height="1440"
   viewBox="0 0 1440 1440"
   xmlns="http://www.w3.org/2000/svg"
   xmlns:svg="http://www.w3.org/2000/svg">
  <defs
     id="defs1" />
  <g
     id="g1">
    <g
       id="group-R5">
      <path
         id="path2"
         d="m 1533.4,2204.04 c -115.78,48.03 -205.5,139.1 -269.49,274.87 -64.02,135.53 -96.12,307.29 -96.13,511.21 0,362.5 0,725.01 0,1087.51 -0.01,203.82 32.44,385.33 97.78,539.78 65.28,154.55 157.12,273.07 275.51,355.81 118.31,82.78 255.71,122.08 411.95,122.05 154.07,-0.06 289.99,-38.26 407.67,-111.23 117.62,-73.08 208.6,-171.97 272.96,-296.87 64.32,-125.01 95.83,-265.45 94.51,-424.34 -0.18,-21.44 -0.36,-42.88 -0.54,-64.33 -0.15,-17.68 -4.51,-31.88 -12.99,-42.58 -8.53,-10.75 -20.18,-16.69 -34.89,-17.83 -166.43,-12.88 -332.71,-26.71 -498.82,-41.47 -14.74,-1.32 -26.28,2.93 -34.59,12.8 -8.36,9.81 -12.46,24.08 -12.34,42.67 0.12,19.89 0.24,39.79 0.37,59.68 0.42,68.96 -16.07,125.38 -49.44,169.88 -33.4,44.43 -78.52,65.34 -135.33,61.94 -56.82,-3.41 -102.69,-31.96 -137.62,-86.29 -34.93,-54.34 -52.54,-124.51 -52.9,-209.64 -1.46,-350.2 -2.93,-700.4 -4.39,-1050.6 -0.35,-85.19 18.62,-150.73 56.99,-195.94 38.34,-45.26 85.67,-61.46 142.05,-49.7 52.17,10.88 95.15,41.06 128.88,90.25 33.69,49.13 50.84,110.5 51.3,184.76 0.25,39.78 0.5,79.56 0.74,119.33 0.1,15.92 -6.13,22.82 -18.71,20.76 -49.22,-8.12 -98.42,-16.4 -147.59,-24.82 -14.65,-2.52 -26.15,0.87 -34.43,10.26 -8.32,9.33 -12.41,23.51 -12.32,42.47 0.82,159.53 1.65,319.06 2.47,478.59 0.1,18.9 4.34,34.29 12.81,46.12 8.41,11.74 20.01,18.51 34.7,20.23 235,27.2 470.47,52.08 706.32,74.63 14.72,1.4 26.27,-2.6 34.63,-11.85 8.31,-9.32 12.44,-22.8 12.29,-40.42 -1.7,-203.06 -3.39,-406.13 -5.09,-609.19 -1.43,-171.55 -35.34,-327.81 -101.49,-472.35 -66.18,-144.57 -158.25,-266.81 -275.94,-368.29 -117.74,-101.4 -252.64,-173.65 -404.53,-214.77 -154.04,-41.69 -288.61,-41.34 -404.36,6.91"
         style="fill:#1c3956;fill-opacity:1;fill-rule:nonzero;stroke:none"
         transform="matrix(0.13333333,0,0,-0.13333333,0,1440)" />
      <path
         id="path3"
         d="m 3384.87,3433.34 c -0.09,-9.37 4.86,-13.49 14.85,-12.43 70.77,7.47 141.58,14.55 212.44,21.22 11.65,1.1 16.71,7.97 15.19,20.67 -35.82,187.36 -71.56,376.18 -107.26,566.58 -1.61,7.28 -4.9,10.83 -9.89,10.57 -4.99,-0.27 -8.38,-4.18 -10.09,-11.65 -38.37,-194.71 -76.77,-391.12 -115.19,-589.36 -0.02,-1.86 -0.04,-3.73 -0.05,-5.6 z m 362.06,-595.1 c -13.6,68.2 -27.19,136.58 -40.78,205.15 -3.28,8.71 -8.25,12.7 -14.9,11.92 -125.24,-14.68 -250.32,-30.99 -375.19,-48.91 -6.67,-0.96 -11.7,-6.39 -15.11,-16.27 -13.99,-74.38 -27.98,-149.02 -41.97,-223.93 -5.21,-25.39 -19.49,-40.06 -42.77,-44.11 -136.42,-23.7 -272.55,-49.64 -408.33,-77.81 -13.26,-2.76 -22.73,-0.32 -28.44,7.37 -5.74,7.66 -6.88,19.72 -3.41,36.23 152.97,691.63 306.91,1351.39 460.7,1986.75 5.22,24.63 18.62,36.98 40.24,37.02 164.55,0.31 329.11,0.6 493.67,0.84 21.58,0.02 34.81,-11.78 39.59,-35.3 141.94,-606.79 284.78,-1195.89 429.1,-1774.71 1.63,-3.42 2.45,-7.73 2.42,-13.03 -0.15,-21.2 -11.98,-32.86 -35.44,-35.06 -139.2,-13.08 -278.23,-28.45 -417.05,-46.11 -23.43,-3 -37.51,6.93 -42.33,29.96"
         style="fill:#1c3956;fill-opacity:1;fill-rule:nonzero;stroke:none"
         transform="matrix(0.13333333,0,0,-0.13333333,0,1440)" />
      <path
         id="path4"
         d="m 5393.87,4713.69 c 129.67,0 259.33,-0.02 388.99,-0.06 11.62,-0.01 20.78,-3.49 27.47,-10.36 6.63,-6.91 10.01,-16.41 10.05,-28.45 1.62,-577.59 3.25,-1155.18 4.87,-1732.77 0.04,-12.09 -3.33,-21.47 -10.01,-28.12 -6.73,-6.69 -15.98,-9.83 -27.73,-9.47 -132.89,4.03 -265.83,5.99 -398.76,5.87 -11.79,-0.01 -21.06,3.39 -27.76,10.25 -6.74,6.83 -10.1,16.28 -10.09,28.31 0.11,329.77 0.21,659.54 0.32,989.32 0,6.85 -2.1,11.15 -6.26,12.87 -4.19,1.68 -7.95,-0.9 -11.28,-7.75 -53.51,-91.16 -107.13,-182.51 -160.84,-274.2 -10.07,-17.31 -25.15,-26.06 -45.24,-26.32 -21.77,-0.28 -43.53,-0.6 -65.3,-0.94 -20.09,-0.33 -35.13,8 -45.13,25.07 -53.33,91.23 -106.55,182.5 -159.68,273.98 -3.34,6.82 -7.09,9.35 -11.25,7.57 -4.2,-1.82 -6.29,-6.19 -6.31,-13.08 -1.23,-332.88 -2.46,-665.75 -3.68,-998.63 -0.04,-12.12 -3.47,-21.79 -10.19,-28.98 -6.77,-7.23 -16.04,-11.1 -27.78,-11.66 -132.83,-6.27 -265.58,-14.62 -398.2,-25.04 -11.77,-0.92 -20.99,1.83 -27.63,8.33 -6.69,6.46 -9.97,15.87 -9.89,28.19 3.73,588.68 7.47,1177.37 11.21,1766.05 0.07,12.28 3.45,21.97 10.16,29.01 6.66,7.01 15.84,10.56 27.49,10.57 129.66,0.12 259.33,0.21 388.99,0.28 19.95,0.01 34.88,-8.65 44.79,-25.91 80.94,-143.43 162.11,-286.02 243.51,-428.35 3.31,-5.14 7.05,-7.7 11.24,-7.67 4.14,0.03 7.08,2.63 8.77,7.79 80.31,143.3 160.4,285.97 240.26,428.54 8.31,17.15 23.27,25.76 44.89,25.76"
         style="fill:#1c3956;fill-opacity:1;fill-rule:nonzero;stroke:none"
         transform="matrix(0.13333333,0,0,-0.13333333,0,1440)" />
      <path
         id="path5"
         d="m 5994.33,2906.88 c -6.77,7.21 -10.16,16.88 -10.2,29.01 -2.2,579.58 -4.41,1159.15 -6.62,1738.72 -0.05,12.08 3.22,21.62 9.86,28.54 6.6,6.89 15.75,10.38 27.39,10.37 131.33,-0.07 262.65,-0.17 393.98,-0.29 11.6,-0.01 20.79,-3.56 27.49,-10.57 6.67,-7.05 10.07,-16.75 10.16,-29.04 3.8,-589.21 7.59,-1178.42 11.39,-1767.63 0.08,-12.32 -3.23,-21.73 -9.88,-28.19 -6.68,-6.49 -15.91,-9.24 -27.62,-8.3 -132.62,10.63 -265.36,19.19 -398.17,25.67 -11.78,0.58 -21.06,4.46 -27.78,11.71"
         style="fill:#1c3956;fill-opacity:1;fill-rule:nonzero;stroke:none"
         transform="matrix(0.13333333,0,0,-0.13333333,0,1440)" />
      <path
         id="path6"
         d="m 7468.5,4700.48 c 6.55,7.47 15.67,11.24 27.33,11.22 130.48,-0.25 260.95,-0.52 391.42,-0.81 11.61,-0.03 20.8,-3.99 27.53,-11.81 6.69,-7.86 10.14,-18.66 10.25,-32.35 5.74,-656.06 11.48,-1312.12 17.22,-1968.19 0.12,-13.72 -3.11,-23.85 -9.65,-30.31 -6.57,-6.49 -15.68,-8.55 -27.24,-6.23 -136.76,27.39 -273.85,52.51 -411.23,75.36 -21.67,3.61 -35.94,16.21 -42.77,37.92 -118.59,323.99 -237.26,637.71 -355.72,943.39 -1.74,7.4 -5.09,11.3 -10.1,11.65 -4.99,0.34 -7.45,-4.05 -7.38,-13.15 4.23,-292.68 8.45,-585.46 12.68,-878.34 0.11,-12.78 -3.16,-22.39 -9.76,-28.76 -6.64,-6.42 -15.81,-8.83 -27.49,-7.3 -131.24,17.15 -262.69,32.25 -394.29,45.3 -11.74,1.17 -21.01,5.6 -27.74,13.35 -6.76,7.72 -10.17,17.8 -10.26,30.22 -4.28,593.83 -8.55,1187.67 -12.82,1781.5 -0.09,12.38 3.15,22.15 9.76,29.24 6.57,7.05 15.7,10.62 27.35,10.61 136.31,-0.16 272.61,-0.33 408.92,-0.54 21.58,-0.03 35.81,-10.09 42.65,-30.2 118.15,-298.11 236.59,-603.51 355.06,-918.42 1.7,-7.65 5.09,-11.21 10.07,-10.66 4.99,0.52 7.43,5.48 7.34,14.89 -3.6,300.55 -7.21,601.04 -10.81,901.46 -0.12,13.12 3.09,23.45 9.68,30.96"
         style="fill:#1c3956;fill-opacity:1;fill-rule:nonzero;stroke:none"
         transform="matrix(0.13333333,0,0,-0.13333333,0,1440)" />
      <path
         id="path7"
         d="m 8457.76,2413.99 c -117.75,102.74 -209.83,226.88 -275.99,373.96 -66.21,147.06 -100.1,307.03 -101.57,483.61 -2.62,314.04 -5.25,628.08 -7.87,942.12 -1.48,176.48 29.88,328.9 94.19,460.17 64.27,131.19 155.22,233.85 272.87,308.24 117.59,74.22 254.55,113.12 410.78,113.18 154.06,0.03 290.41,-38.57 408.78,-119.93 118.32,-81.28 210.15,-195.57 275.48,-342.78 65.29,-147.17 97.8,-314.63 97.79,-498.1 0,-24.75 0,-49.5 0,-74.24 0,-20.42 -4.21,-36 -12.56,-46.66 -8.37,-10.72 -19.89,-15.22 -34.52,-13.59 -165.32,18.41 -330.86,35.89 -496.6,52.42 -14.72,1.47 -26.29,8.11 -34.69,19.94 -8.45,11.77 -12.71,27.31 -12.78,46.55 -0.09,20.59 -0.17,41.19 -0.26,61.79 -0.3,71.4 -17.38,132.55 -51.2,182.71 -33.88,50.14 -79.2,76.65 -136.02,80.05 -56.8,3.4 -102.45,-19.52 -136.85,-67.84 -34.44,-48.41 -51.38,-113.41 -50.86,-195.61 2.1,-338.25 4.2,-676.51 6.3,-1014.76 0.5,-82.26 20.27,-152.64 59.29,-212.21 38.98,-59.53 86.67,-95.53 143.03,-107.37 52.15,-10.95 94.81,1.52 127.99,38.31 33.15,36.68 49.61,93.79 49.29,170.78 -0.17,41.23 -0.34,82.46 -0.51,123.69 -0.08,16.49 -6.36,25.86 -18.91,28.11 -49.08,8.84 -98.19,17.53 -147.34,26.06 -14.64,2.55 -26.19,9.92 -34.59,22.15 -8.44,12.17 -12.69,27.71 -12.79,46.59 -0.85,158.92 -1.7,317.84 -2.55,476.76 -0.1,18.81 3.98,33.14 12.34,42.97 8.31,9.75 19.84,13.86 34.52,12.14 234.93,-27.56 469.38,-57.45 703.29,-89.67 14.59,-2 26.09,-9.45 34.45,-22.21 8.32,-12.83 12.54,-29.46 12.53,-49.81 0,-234.38 0,-468.76 0,-703.14 -0.01,-198.1 -32.17,-365.4 -96.12,-497.98 -64.04,-132.78 -153.74,-221.67 -269.48,-268.32 -115.78,-46.74 -249.37,-46.78 -401.23,-5.64 -154.02,41.73 -289.95,114.85 -407.63,217.56"
         style="fill:#1c3956;fill-opacity:1;fill-rule:nonzero;stroke:none"
         transform="matrix(0.13333333,0,0,-0.13333333,0,1440)" />
      <path
         id="path8"
         d="m 5992.24,7541.18 463.34,554.03 c 23.83,27.89 34.83,58.25 32.26,89.61 -2.22,27.92 -15.48,53.72 -37.36,72.36 -19.81,16.77 -43.78,25.69 -68.94,25.69 -23.99,0 -58.79,-7.85 -90.61,-45.03 l -398.69,-451.35 83.96,354.97 c 9.5,35.82 6.32,67.67 -9.54,94.87 -13.91,24.49 -37.16,41.74 -65.04,49.21 -9.38,2.36 -18.66,3.69 -28.09,3.69 -40.37,0 -89.72,-23.72 -107.58,-90.62 l -96.16,-353.26 -155.93,689.43 c -14.21,72.97 -67.5,98.96 -108.67,98.96 -7.1,0 -14.21,-0.75 -21.3,-2.09 -43.33,-8.46 -75.84,-40.79 -84.73,-84.28 -3.4,-16.95 -3.23,-34.81 0.61,-54.36 l 137.05,-676.36 -170.13,219.28 c -32.36,43.33 -69.6,52.61 -95.32,52.61 -22.94,0 -44.76,-7.43 -63.6,-21.5 -35.43,-26.22 -50.65,-69.5 -39.78,-112.56 4.19,-16.61 11.76,-32.7 22.66,-47.41 l 166.24,-232.86 -480.57,238.28 c -21.18,11.03 -41.57,16.48 -62.22,16.48 -40.25,0 -75.86,-21.59 -94.48,-57.47 -13.17,-25.22 -16.15,-53.33 -8.21,-79.91 6.34,-20.97 22.08,-50.32 62.73,-71.48 l 475.15,-252.28 c 0,0 -878.53,31.31 -880.77,31.31 -74.67,0 -115.51,-52.81 -117.34,-105.08 -0.98,-28.67 9.03,-55.9 28.42,-76.58 21.04,-22.41 51.11,-35.1 86.05,-36.14 l 887.71,-49.21 -203.55,-96.39 c -18.26,-8.1 -32.77,-18.26 -44.76,-30.81 -30.77,-31.99 -38.77,-77.04 -20.94,-117.47 17.56,-39.54 54.97,-63.8 98.19,-63.8 17.9,0 36.35,4.09 54.29,12.12 l 200.48,84.25 -454.79,-537.16 c -23.85,-28.31 -34.86,-58.47 -32.44,-89.63 2.2,-28.14 15.5,-53.79 37.31,-72.57 19.97,-16.92 43.76,-26.05 69.16,-26.05 23.77,0 58.99,7.99 90.86,45.4 l 468.71,528.61 -75.72,-294.03 c -20,-75.99 22.72,-129.66 74.95,-143.51 9.26,-2.45 18.72,-3.69 27.93,-3.69 38.65,0 89.96,23.77 107.37,89.9 l 86.5,293.48 144.19,-684.91 c 13.98,-73.17 67.27,-99.21 108.62,-99.21 6.8,0 13.9,0.72 21.01,2.19 43.49,8.49 75.93,40.51 84.84,84.09 3.41,16.53 3.33,34.61 -0.16,52.82 l -131.58,701.89 252.11,-320.98 c 32.39,-43.63 69.76,-52.6 95.42,-52.6 22.88,0 44.84,7.22 63.79,21.47 35.5,26.3 50.72,69.71 39.77,112.71 -4.27,16.38 -12.19,32.47 -23.21,47.12 l -312.31,429.1 c 0,0 -35.79,52.95 -83.79,1.49 -66.75,-71.08 -158.27,-120.01 -263.59,-120.01 -193.38,0 -350.2,157.09 -350.2,350.41 0,193.37 156.82,350.19 350.2,350.19 116.16,0 219.03,-56.63 282.63,-143.85 0,0 39.33,-48.63 77.59,-1.52"
         style="fill:#55c6f3;fill-opacity:1;fill-rule:nonzero;stroke:none"
         transform="matrix(0.13333333,0,0,-0.13333333,0,1440)" />
      <path
         id="path9"
         d="m 3351.99,5423.97 v 2.84 c 0,208.27 159.71,380.67 382.41,380.67 111.6,0 189.08,-32.39 251.15,-84.13 12.96,-10.7 31.19,-34.23 31.19,-67.68 0,-49.64 -40.42,-88.67 -90.06,-88.67 -25.58,0 -45.51,10.2 -57.4,19.45 -38.51,30.22 -78.71,50.38 -136.14,50.38 -108.17,0 -185.76,-94.75 -185.76,-207.29 v -2.73 c 0,-116.4 76.61,-209.72 193.59,-209.72 57.42,0 101.66,21.24 143,54 10.5,8.38 30.16,18.78 53.33,18.78 46.92,0 83.48,-37.95 83.48,-84.77 0,-26.02 -11.37,-46.78 -28.38,-62.33 -62.55,-57.14 -140.24,-96.48 -260.73,-96.48 -218.92,0 -379.68,169.36 -379.68,377.68"
         style="fill:#55c6f3;fill-opacity:1;fill-rule:nonzero;stroke:none"
         transform="matrix(0.13333333,0,0,-0.13333333,0,1440)" />
      <path
         id="path10"
         d="m 5836.98,5702.84 c 0,54.71 43.77,98.85 98.53,98.85 54.79,0 98.88,-44.14 98.88,-98.85 v -549.35 c 0,-54.79 -44.09,-98.6 -98.88,-98.6 -54.49,0 -98.53,43.81 -98.53,98.6 v 549.35"
         style="fill:#55c6f3;fill-opacity:1;fill-rule:nonzero;stroke:none"
         transform="matrix(0.13333333,0,0,-0.13333333,0,1440)" />
      <path
         id="path11"
         d="m 7080.42,5046.29 c -217.57,0 -380,154.01 -380,378.01 v 2.75 c 0,208.77 148.4,380.43 360.19,380.43 241.21,0 350.75,-198.01 350.75,-353.7 0,-56.76 -40.81,-94.81 -92.45,-94.81 h -422.16 c 19.86,-100.23 89.91,-153.49 186.44,-153.49 60.54,0 109.85,19.81 153.65,52.64 14.27,10.62 27.32,16.05 48.63,16.05 44.11,0 76.91,-33.9 76.91,-78.35 0,-25.7 -11.41,-45.81 -26.02,-58.81 -63.64,-56.9 -147.8,-90.72 -255.94,-90.72 z m 141.61,442.05 c -11.92,93.9 -68.66,160.12 -161.77,160.12 -90.04,0 -149.82,-63.92 -165.9,-160.12 h 327.67"
         style="fill:#55c6f3;fill-opacity:1;fill-rule:nonzero;stroke:none"
         transform="matrix(0.13333333,0,0,-0.13333333,0,1440)" />
      <path
         id="path12"
         d="m 6587.91,5802.09 c -81.09,0 -146.79,-50.42 -187.08,-120.01 v 20.76 c 0,54.71 -44.17,98.85 -98.88,98.85 -54.7,0 -98.44,-44.14 -98.44,-98.85 v -549.35 c 0,-54.79 43.98,-98.6 98.44,-98.6 54.71,0 98.88,44.07 98.88,98.6 v 272 c 0,102.53 36.45,139.47 151,169.61 106.15,27.93 139.96,53.66 139.96,107.87 0,60.94 -41.93,99.12 -103.88,99.12"
         style="fill:#55c6f3;fill-opacity:1;fill-rule:nonzero;stroke:none"
         transform="matrix(0.13333333,0,0,-0.13333333,0,1440)" />
      <path
         id="path13"
         d="m 4642.49,5505.71 c -80.45,26.96 -158.2,49.23 -156.66,91.12 v 2.75 c 0,31.02 33.16,47.13 86.31,47.3 44.08,0 94.66,-15.3 152.53,-44.07 13.1,-6.65 23.37,-9.71 38.36,-9.58 46.23,0.07 82.97,35.49 83.03,82.13 0.07,35.38 -19.35,62.87 -48.51,77.67 -70.6,36.05 -144.86,54.45 -221.4,54.45 -146.37,-0.1 -274.94,-79.14 -275.25,-227.61 v -2.67 c 0.14,-144.01 126.18,-190.55 227.44,-223.96 81.1,-26.17 162.14,-44.8 160.49,-89.24 v -2.7 c -0.06,-32.54 -35.26,-53.1 -97.1,-53.29 -58.9,0 -127.58,21.27 -196.49,64.71 -11.14,7.08 -26.07,11.26 -41.41,11.26 -46.28,-0.06 -81.52,-35.98 -81.65,-82.26 0,-32.85 17.77,-57.34 39.19,-70.93 88.26,-56.09 184.79,-84.5 275.36,-84.5 155.69,0.25 289.2,65.11 289.53,227.49 v 2.82 c -0.26,135.79 -124.75,191.75 -233.77,229.11"
         style="fill:#55c6f3;fill-opacity:1;fill-rule:nonzero;stroke:none"
         transform="matrix(0.13333333,0,0,-0.13333333,0,1440)" />
      <path
         id="path14"
         d="m 5356.6,5227.76 c -95.29,0 -170.86,82.75 -170.86,200.34 0,117.63 75.57,200.38 170.86,200.38 95.32,0 172.54,-82.75 172.54,-200.38 0,-117.59 -77.22,-200.34 -172.54,-200.34 z m 37.96,579.72 c -79.46,0 -152.18,-33.24 -208.01,-89.58 -7.24,47.57 -48.01,83.79 -97.58,83.79 -54.76,0 -98.53,-44.14 -98.53,-98.85 v -815.29 c 0,-54.69 44.08,-98.46 98.53,-98.46 54.72,0 98.88,43.77 98.88,98.46 v 249.53 c 55.62,-55.57 127.84,-88.31 206.71,-88.31 176.19,0 319.02,162.83 319.02,379.33 0,216.5 -142.83,379.38 -319.02,379.38"
         style="fill:#55c6f3;fill-opacity:1;fill-rule:nonzero;stroke:none"
         transform="matrix(0.13333333,0,0,-0.13333333,0,1440)" />
      <path
         id="path15"
         d="m 7425.16,5764.25 c 5.11,0 7.93,2.56 7.93,6.39 0,4.1 -3.08,6.4 -7.93,6.4 h -9.73 v -12.79 z m -20.98,16.63 c 0,3.33 2.55,5.89 5.63,5.89 h 16.1 c 11.01,0 18.69,-5.13 18.69,-15.36 0,-6.91 -3.59,-11.77 -9.22,-14.07 l 6.9,-8.45 c 1.29,-1.28 1.55,-2.55 1.55,-4.1 0,-3.06 -2.3,-5.36 -5.63,-5.36 -2.05,0 -3.33,1.02 -4.62,2.3 l -10.73,13.31 h -7.42 v -9.99 c 0,-3.06 -2.55,-5.62 -5.62,-5.62 -3.08,0 -5.63,2.56 -5.63,5.62 z m 57.81,-18.17 v 0.26 c 0,21.74 -16.88,39.65 -39.4,39.65 -22.25,0 -39.4,-18.17 -39.4,-39.91 v -0.26 c 0,-21.74 16.89,-39.66 39.4,-39.66 22.26,0 39.4,18.17 39.4,39.92 z m -83.9,-0.26 v 0.26 c 0,24.31 19.69,44.77 44.5,44.77 25.08,0 44.51,-20.21 44.51,-44.51 v -0.26 c 0,-24.31 -19.69,-44.77 -44.51,-44.77 -25.07,0 -44.5,20.21 -44.5,44.51"
         style="fill:#55c6f3;fill-opacity:1;fill-rule:nonzero;stroke:none"
         transform="matrix(0.13333333,0,0,-0.13333333,0,1440)" />
    </g>
  </g>
</svg>
