<?xml version="1.0" encoding="UTF-8" standalone="no"?>
<!-- Created with Inkscape (http://www.inkscape.org/) -->

<svg
   version="1.1"
   id="svg1"
   width="1242.2441"
   height="221.62654"
   viewBox="0 0 1242.2441 221.62654"
   xmlns="http://www.w3.org/2000/svg"
   xmlns:svg="http://www.w3.org/2000/svg">
  <defs
     id="defs1" />
  <g
     id="g1"
     transform="translate(-97.889076,-124.70497)">
    <g
       id="group-R5">
      <path
         id="path2"
         d="m 5483,1083.67 c -55.42,22.99 -98.39,66.6 -129.01,131.59 -30.64,64.88 -46.02,147.11 -46.02,244.74 0,173.54 0,347.08 0,520.63 -0.01,97.58 15.53,184.47 46.81,258.41 31.25,73.99 75.2,130.73 131.89,170.34 56.64,39.63 122.44,58.45 197.23,58.43 73.74,-0.02 138.82,-18.32 195.15,-53.25 56.32,-34.98 99.87,-82.34 130.68,-142.12 30.78,-59.85 45.89,-127.08 45.25,-203.15 -0.08,-10.27 -0.16,-20.53 -0.25,-30.8 -0.07,-8.46 -2.18,-15.26 -6.23,-20.38 -4.09,-5.15 -9.66,-7.99 -16.69,-8.53 -79.69,-6.18 -159.3,-12.79 -238.82,-19.86 -7.04,-0.63 -12.59,1.4 -16.55,6.13 -4,4.69 -5.98,11.52 -5.92,20.42 0.06,9.53 0.12,19.05 0.18,28.58 0.2,33.01 -7.68,60.02 -23.67,81.32 -16,21.27 -37.58,31.28 -64.78,29.66 -27.21,-1.63 -49.17,-15.31 -65.89,-41.32 -16.71,-26.01 -25.15,-59.6 -25.31,-100.36 -0.7,-167.65 -1.4,-335.3 -2.11,-502.96 -0.16,-40.78 8.92,-72.16 27.28,-93.8 18.35,-21.66 41.02,-29.42 68.01,-23.79 24.96,5.2 45.55,19.66 61.69,43.2 16.12,23.52 24.34,52.91 24.57,88.45 0.12,19.05 0.24,38.09 0.36,57.13 0.04,7.62 -2.95,10.93 -8.97,9.94 -23.57,-3.89 -47.12,-7.85 -70.66,-11.88 -7.01,-1.21 -12.52,0.42 -16.47,4.91 -3.98,4.46 -5.95,11.26 -5.91,20.33 0.39,76.37 0.79,152.75 1.18,229.12 0.03,9.05 2.11,16.41 6.15,22.08 4.02,5.62 9.55,8.87 16.6,9.68 112.5,13.03 225.24,24.94 338.15,35.73 7.04,0.68 12.57,-1.24 16.57,-5.67 3.98,-4.46 5.97,-10.91 5.89,-19.35 -0.81,-97.21 -1.62,-194.43 -2.43,-291.64 -0.7,-82.13 -16.94,-156.93 -48.6,-226.13 -31.66,-69.21 -75.75,-127.74 -132.11,-176.32 -56.35,-48.54 -120.94,-83.14 -193.65,-102.82 -73.73,-19.96 -138.17,-19.78 -193.59,3.31"
         style="fill:#1c3956;fill-opacity:1;fill-rule:nonzero;stroke:none"
         transform="matrix(0.13333333,0,0,-0.13333333,0,471.10667)" />
      <path
         id="path3"
         d="m 6454.25,1676.84 c -0.07,-5.7 2.94,-8.2 9.03,-7.56 43.02,4.55 86.08,8.85 129.16,12.9 7.1,0.67 10.15,4.85 9.24,12.57 -21.78,113.92 -43.52,228.71 -65.22,344.47 -0.98,4.43 -2.97,6.59 -6.01,6.43 -3.04,-0.16 -5.1,-2.54 -6.14,-7.08 -23.33,-118.39 -46.68,-237.8 -70.03,-358.32 -0.01,-1.14 -0.02,-2.27 -0.03,-3.41 z m 220.14,-361.81 c -8.28,41.46 -16.54,83.04 -24.8,124.72 -2,5.3 -5.02,7.73 -9.06,7.25 -76.15,-8.93 -152.2,-18.84 -228.12,-29.74 -4.04,-0.58 -7.12,-3.88 -9.18,-9.89 -8.51,-45.22 -17.01,-90.6 -25.52,-136.15 -3.17,-15.43 -11.84,-24.36 -26.01,-26.81 -82.94,-14.41 -165.7,-30.18 -248.25,-47.31 -8.08,-1.68 -13.81,-0.19 -17.3,4.48 -3.48,4.65 -4.17,11.99 -2.07,22.03 93.01,420.5 186.6,821.63 280.11,1207.92 3.17,14.97 11.32,22.48 24.46,22.5 100.04,0.2 200.1,0.37 300.15,0.52 13.1,0.01 21.16,-7.17 24.07,-21.46 86.3,-368.92 173.14,-727.09 260.88,-1079.01 0.98,-2.07 1.51,-4.7 1.48,-7.92 -0.09,-12.89 -7.29,-19.98 -21.55,-21.32 -84.63,-7.95 -169.16,-17.29 -253.56,-28.03 -14.24,-1.82 -22.81,4.22 -25.73,18.22"
         style="fill:#1c3956;fill-opacity:1;fill-rule:nonzero;stroke:none"
         transform="matrix(0.13333333,0,0,-0.13333333,0,471.10667)" />
      <path
         id="path4"
         d="m 7675.7,2455.28 c 78.84,0 157.67,-0.02 236.51,-0.04 7.06,-0.01 12.63,-2.12 16.7,-6.3 4.02,-4.2 6.1,-9.97 6.1,-17.3 0.99,-351.17 1.98,-702.33 2.97,-1053.5 0.01,-7.35 -2.01,-13.05 -6.08,-17.1 -4.09,-4.06 -9.72,-5.97 -16.87,-5.75 -80.79,2.45 -161.62,3.64 -242.44,3.57 -7.17,-0.01 -12.81,2.06 -16.88,6.23 -4.12,4.15 -6.13,9.89 -6.13,17.21 0.06,200.5 0.13,400.99 0.2,601.49 0.01,4.16 -1.28,6.78 -3.81,7.83 -2.55,1.02 -4.84,-0.55 -6.86,-4.71 -32.54,-55.43 -65.13,-110.97 -97.78,-166.71 -6.14,-10.53 -15.31,-15.85 -27.51,-16.01 -13.24,-0.17 -26.47,-0.36 -39.7,-0.57 -12.22,-0.2 -21.37,4.87 -27.44,15.24 -32.43,55.47 -64.79,110.97 -97.09,166.58 -2.05,4.15 -4.3,5.68 -6.84,4.61 -2.56,-1.11 -3.82,-3.77 -3.84,-7.96 -0.74,-202.38 -1.49,-404.77 -2.23,-607.15 -0.03,-7.37 -2.12,-13.25 -6.2,-17.62 -4.12,-4.4 -9.75,-6.75 -16.89,-7.09 -80.76,-3.81 -161.47,-8.89 -242.11,-15.22 -7.15,-0.56 -12.76,1.11 -16.79,5.06 -4.06,3.93 -6.06,9.65 -6.01,17.14 2.27,357.91 4.54,715.82 6.81,1073.74 0.05,7.46 2.09,13.35 6.18,17.64 4.05,4.26 9.62,6.41 16.71,6.42 78.83,0.07 157.66,0.13 236.5,0.17 12.14,0 21.22,-5.27 27.23,-15.75 49.21,-87.21 98.57,-173.9 148.06,-260.44 2,-3.12 4.31,-4.67 6.83,-4.66 2.52,0.02 4.29,1.6 5.33,4.74 48.83,87.13 97.53,173.87 146.08,260.55 5.04,10.42 14.16,15.66 27.29,15.66"
         style="fill:#1c3956;fill-opacity:1;fill-rule:nonzero;stroke:none"
         transform="matrix(0.13333333,0,0,-0.13333333,0,471.10667)" />
      <path
         id="path5"
         d="m 8040.78,1356.76 c -4.12,4.38 -6.17,10.26 -6.2,17.64 -1.34,352.37 -2.69,704.74 -4.03,1057.12 -0.02,7.34 1.96,13.14 6,17.35 4.02,4.18 9.55,6.31 16.64,6.3 79.85,-0.04 159.69,-0.1 239.54,-0.17 7.07,-0.01 12.64,-2.17 16.72,-6.43 4.03,-4.29 6.13,-10.19 6.18,-17.66 2.3,-358.23 4.61,-716.46 6.92,-1074.69 0.05,-7.5 -1.98,-13.22 -6.01,-17.14 -4.06,-3.95 -9.67,-5.62 -16.79,-5.05 -80.63,6.47 -161.34,11.67 -242.09,15.61 -7.16,0.35 -12.8,2.71 -16.88,7.12"
         style="fill:#1c3956;fill-opacity:1;fill-rule:nonzero;stroke:none"
         transform="matrix(0.13333333,0,0,-0.13333333,0,471.10667)" />
      <path
         id="path6"
         d="m 8937.06,2447.24 c 4,4.54 9.53,6.84 16.61,6.83 79.33,-0.15 158.66,-0.32 237.99,-0.5 7.06,-0.01 12.64,-2.42 16.74,-7.17 4.05,-4.78 6.15,-11.35 6.23,-19.67 3.48,-398.88 6.98,-797.76 10.47,-1196.64 0.08,-8.34 -1.9,-14.49 -5.87,-18.43 -3.99,-3.95 -9.53,-5.19 -16.57,-3.78 -83.14,16.65 -166.49,31.92 -250.02,45.81 -13.15,2.2 -21.84,9.85 -25.99,23.05 -72.11,196.99 -144.26,387.73 -216.28,573.58 -1.07,4.49 -3.09,6.86 -6.14,7.08 -3.05,0.21 -4.52,-2.47 -4.48,-8 2.56,-177.94 5.13,-355.95 7.7,-534.01 0.05,-7.78 -1.91,-13.62 -5.94,-17.49 -4.01,-3.9 -9.62,-5.37 -16.71,-4.44 -79.79,10.43 -159.71,19.61 -239.73,27.54 -7.14,0.71 -12.77,3.41 -16.85,8.12 -4.12,4.69 -6.17,10.82 -6.25,18.37 -2.6,361.05 -5.2,722.09 -7.79,1083.13 -0.08,7.53 1.91,13.46 5.93,17.78 3.99,4.29 9.55,6.46 16.62,6.45 82.88,-0.09 165.75,-0.2 248.63,-0.33 13.11,-0.02 21.76,-6.14 25.93,-18.36 71.84,-181.24 143.85,-366.92 215.87,-558.38 1.05,-4.66 3.09,-6.82 6.13,-6.49 3.03,0.32 4.51,3.33 4.46,9.06 -2.2,182.72 -4.39,365.42 -6.57,548.07 -0.09,7.98 1.87,14.26 5.88,18.82"
         style="fill:#1c3956;fill-opacity:1;fill-rule:nonzero;stroke:none"
         transform="matrix(0.13333333,0,0,-0.13333333,0,471.10667)" />
      <path
         id="path7"
         d="m 9488.7,1184.12 c -56.37,49.19 -100.46,108.62 -132.13,179.04 -31.68,70.41 -47.92,146.99 -48.62,231.53 -1.26,150.35 -2.51,300.7 -3.77,451.05 -0.71,84.49 14.31,157.46 45.09,220.31 30.76,62.8 74.31,111.96 130.64,147.57 56.29,35.54 121.89,54.16 196.67,54.19 73.77,0.01 139.05,-18.47 195.7,-57.42 56.64,-38.91 100.64,-93.63 131.92,-164.11 31.2,-70.46 46.8,-150.63 46.8,-238.47 0,-11.85 0,-23.7 0,-35.54 0,-9.77 -2,-17.24 -6,-22.34 -4,-5.13 -9.5,-7.29 -16.5,-6.51 -79.19,8.82 -158.45,17.18 -237.8,25.1 -7.04,0.7 -12.59,3.89 -16.61,9.55 -4.05,5.63 -6.08,13.07 -6.12,22.28 -0.04,9.86 -0.08,19.72 -0.12,29.58 -0.14,34.19 -8.32,63.47 -24.52,87.48 -16.21,24 -37.93,36.7 -65.11,38.33 -27.2,1.62 -49.04,-9.35 -65.53,-32.49 -16.47,-23.17 -24.58,-54.29 -24.34,-93.65 1.01,-161.94 2.02,-323.88 3.02,-485.82 0.24,-39.39 9.69,-73.08 28.38,-101.6 18.66,-28.5 41.49,-45.74 68.48,-51.4 24.97,-5.25 45.38,0.73 61.27,18.34 15.87,17.56 23.76,44.9 23.6,81.76 -0.08,19.74 -0.16,39.48 -0.24,59.22 -0.03,7.89 -3.05,12.38 -9.06,13.46 -23.5,4.23 -47.01,8.39 -70.54,12.47 -7.02,1.22 -12.53,4.75 -16.55,10.61 -4.06,5.82 -6.09,13.27 -6.13,22.3 -0.41,76.09 -0.82,152.17 -1.23,228.26 -0.04,9 1.92,15.86 5.92,20.57 3.97,4.67 9.5,6.63 16.52,5.81 112.48,-13.2 224.73,-27.5 336.71,-42.93 7,-0.96 12.5,-4.52 16.5,-10.63 4,-6.15 6,-14.11 6,-23.85 0,-112.21 0,-224.42 0,-336.64 0,-94.84 -15.4,-174.94 -46,-238.41 -30.66,-63.57 -73.64,-106.12 -129.05,-128.46 -55.43,-22.38 -119.37,-22.39 -192.08,-2.7 -73.74,19.98 -138.82,54.99 -195.17,104.16"
         style="fill:#1c3956;fill-opacity:1;fill-rule:nonzero;stroke:none"
         transform="matrix(0.13333333,0,0,-0.13333333,0,471.10667)" />
      <path
         id="path8"
         d="m 2314.01,1766.43 v 1.74 c 0,127.61 97.86,233.25 234.31,233.25 68.38,0 115.86,-19.85 153.89,-51.55 7.94,-6.56 19.11,-20.98 19.11,-41.47 0,-30.41 -24.76,-54.33 -55.18,-54.33 -15.68,0 -27.88,6.25 -35.17,11.92 -23.6,18.51 -48.23,30.87 -83.42,30.87 -66.28,0 -113.82,-58.06 -113.82,-127.02 v -1.67 c 0,-71.32 46.94,-128.5 118.62,-128.5 35.18,0 62.29,13.01 87.62,33.09 6.43,5.13 18.48,11.51 32.67,11.51 28.76,0 51.16,-23.26 51.16,-51.94 0,-15.95 -6.97,-28.67 -17.39,-38.2 -38.33,-35.01 -85.93,-59.11 -159.76,-59.11 -134.14,0 -232.64,103.77 -232.64,231.41"
         style="fill:#55c6f3;fill-opacity:1;fill-rule:nonzero;stroke:none"
         transform="matrix(0.13333333,0,0,-0.13333333,0,471.10667)" />
      <path
         id="path9"
         d="m 3836.63,1937.3 c 0,33.52 26.82,60.57 60.37,60.57 33.58,0 60.59,-27.05 60.59,-60.57 v -336.6 c 0,-33.57 -27.01,-60.42 -60.59,-60.42 -33.38,0 -60.37,26.85 -60.37,60.42 v 336.6"
         style="fill:#55c6f3;fill-opacity:1;fill-rule:nonzero;stroke:none"
         transform="matrix(0.13333333,0,0,-0.13333333,0,471.10667)" />
      <path
         id="path10"
         d="m 4598.52,1535.02 c -133.31,0 -232.84,94.36 -232.84,231.62 v 1.68 c 0,127.92 90.94,233.1 220.7,233.1 147.8,0 214.92,-121.33 214.92,-216.73 0,-34.77 -25.01,-58.09 -56.65,-58.09 h -258.67 c 12.17,-61.41 55.09,-94.05 114.24,-94.05 37.09,0 67.31,12.15 94.15,32.26 8.73,6.51 16.74,9.84 29.79,9.84 27.03,0 47.13,-20.78 47.13,-48.01 0,-15.75 -6.99,-28.07 -15.95,-36.04 -38.99,-34.86 -90.56,-55.58 -156.82,-55.58 z m 86.77,270.85 c -7.3,57.54 -42.07,98.12 -99.12,98.12 -55.17,0 -91.8,-39.17 -101.65,-98.12 h 200.77"
         style="fill:#55c6f3;fill-opacity:1;fill-rule:nonzero;stroke:none"
         transform="matrix(0.13333333,0,0,-0.13333333,0,471.10667)" />
      <path
         id="path11"
         d="m 4296.75,1998.11 c -49.69,0 -89.94,-30.89 -114.63,-73.53 v 12.72 c 0,33.52 -27.07,60.57 -60.59,60.57 -33.52,0 -60.31,-27.05 -60.31,-60.57 v -336.6 c 0,-33.57 26.94,-60.42 60.31,-60.42 33.52,0 60.59,27.01 60.59,60.42 v 166.66 c 0,62.83 22.33,85.46 92.52,103.93 65.04,17.11 85.76,32.88 85.76,66.09 0,37.34 -25.7,60.73 -63.65,60.73"
         style="fill:#55c6f3;fill-opacity:1;fill-rule:nonzero;stroke:none"
         transform="matrix(0.13333333,0,0,-0.13333333,0,471.10667)" />
      <path
         id="path12"
         d="m 3104.73,1816.51 c -49.29,16.52 -96.93,30.17 -95.99,55.84 v 1.68 c 0,19.01 20.32,28.88 52.89,28.99 27.01,0 58,-9.38 93.46,-27.01 8.03,-4.07 14.32,-5.95 23.5,-5.87 28.33,0.04 50.84,21.74 50.88,50.32 0.04,21.68 -11.86,38.53 -29.73,47.6 -43.25,22.09 -88.75,33.36 -135.65,33.36 -89.69,-0.06 -168.47,-48.49 -168.65,-139.47 v -1.63 c 0.08,-88.24 77.31,-116.76 139.35,-137.23 49.69,-16.03 99.35,-27.45 98.34,-54.68 v -1.65 c -0.04,-19.94 -21.61,-32.54 -59.5,-32.65 -36.09,0 -78.17,13.03 -120.39,39.65 -6.83,4.34 -15.97,6.9 -25.37,6.9 -28.36,-0.04 -49.95,-22.05 -50.03,-50.4 0,-20.13 10.89,-35.14 24.01,-43.47 54.08,-34.37 113.23,-51.77 168.72,-51.77 95.4,0.15 177.2,39.89 177.4,139.38 v 1.73 c -0.16,83.21 -76.44,117.49 -143.24,140.38"
         style="fill:#55c6f3;fill-opacity:1;fill-rule:nonzero;stroke:none"
         transform="matrix(0.13333333,0,0,-0.13333333,0,471.10667)" />
      <path
         id="path13"
         d="m 3542.29,1646.21 c -58.38,0 -104.69,50.7 -104.69,122.75 0,72.08 46.31,122.78 104.69,122.78 58.41,0 105.72,-50.7 105.72,-122.78 0,-72.05 -47.31,-122.75 -105.72,-122.75 z m 23.26,355.21 c -48.69,0 -93.25,-20.37 -127.45,-54.89 -4.44,29.15 -29.42,51.34 -59.8,51.34 -33.55,0 -60.37,-27.05 -60.37,-60.57 v -499.55 c 0,-33.51 27.01,-60.33 60.37,-60.33 33.54,0 60.59,26.82 60.59,60.33 v 152.89 c 34.08,-34.04 78.33,-54.1 126.66,-54.1 107.96,0 195.47,99.77 195.47,232.42 0,132.66 -87.51,232.46 -195.47,232.46"
         style="fill:#55c6f3;fill-opacity:1;fill-rule:nonzero;stroke:none"
         transform="matrix(0.13333333,0,0,-0.13333333,0,471.10667)" />
      <path
         id="path14"
         d="m 1877.11,1895.94 283.9,339.46 c 14.6,17.1 21.34,35.7 19.76,54.91 -1.35,17.11 -9.48,32.92 -22.89,44.34 -12.14,10.28 -26.82,15.74 -42.24,15.74 -14.7,0 -36.02,-4.81 -55.52,-27.59 l -244.29,-276.55 51.45,217.49 c 5.82,21.96 3.87,41.47 -5.85,58.14 -8.52,15 -22.76,25.57 -39.85,30.15 -5.75,1.45 -11.43,2.26 -17.21,2.26 -24.74,0 -54.97,-14.53 -65.92,-55.53 l -58.92,-216.45 -95.54,422.43 c -8.71,44.72 -41.36,60.64 -66.58,60.64 -4.35,0 -8.71,-0.46 -13.05,-1.28 -26.55,-5.19 -46.47,-24.99 -51.93,-51.64 -2.08,-10.38 -1.97,-21.33 0.38,-33.31 l 83.98,-414.42 -104.25,134.35 c -19.82,26.55 -42.65,32.24 -58.4,32.24 -14.06,0 -27.43,-4.55 -38.97,-13.17 -21.71,-16.07 -31.04,-42.59 -24.37,-68.97 2.56,-10.18 7.2,-20.04 13.88,-29.05 l 101.86,-142.68 -294.46,146 c -12.98,6.76 -25.47,10.1 -38.12,10.1 -24.67,0 -46.48,-13.23 -57.89,-35.22 -8.07,-15.45 -9.9,-32.67 -5.03,-48.96 3.88,-12.85 13.52,-30.83 38.43,-43.8 l 291.14,-154.58 c 0,0 -538.301,19.19 -539.672,19.19 -45.75,0 -70.774,-32.36 -71.899,-64.39 -0.601,-17.57 5.531,-34.25 17.414,-46.92 12.895,-13.73 31.317,-21.51 52.727,-22.14 l 543.92,-30.16 -124.72,-59.06 c -11.19,-4.96 -20.08,-11.18 -27.43,-18.88 -18.85,-19.6 -23.75,-47.2 -12.82,-71.97 10.76,-24.23 33.68,-39.09 60.16,-39.09 10.97,0 22.27,2.5 33.27,7.43 l 122.84,51.61 -278.67,-329.13 c -14.61,-17.35 -21.36,-35.83 -19.88,-54.92 1.35,-17.24 9.5,-32.95 22.87,-44.46 12.23,-10.37 26.81,-15.96 42.37,-15.96 14.56,0 36.14,4.89 55.67,27.81 l 287.2,323.9 -46.4,-180.16 c -12.26,-46.56 13.92,-79.45 45.92,-87.94 5.68,-1.49 11.47,-2.25 17.12,-2.25 23.68,0 55.12,14.56 65.78,55.08 l 53.01,179.82 88.34,-419.66 c 8.57,-44.83 41.22,-60.791 66.56,-60.791 4.17,0 8.52,0.442 12.88,1.34 26.64,5.211 46.52,24.82 51.97,51.531 2.1,10.12 2.04,21.2 -0.09,32.36 l -80.62,430.07 154.47,-196.68 c 19.85,-26.73 42.75,-32.23 58.47,-32.23 14.02,0 27.47,4.43 39.08,13.16 21.76,16.12 31.08,42.71 24.37,69.06 -2.61,10.04 -7.47,19.9 -14.22,28.87 l -191.36,262.92 c 0,0 -21.93,32.45 -51.34,0.92 -40.9,-43.55 -96.98,-73.54 -161.51,-73.54 -118.49,0 -214.58,96.25 -214.58,214.71 0,118.48 96.09,214.57 214.58,214.57 71.17,0 134.21,-34.7 173.18,-88.14 0,0 24.09,-29.8 47.54,-0.93"
         style="fill:#55c6f3;fill-opacity:1;fill-rule:nonzero;stroke:none"
         transform="matrix(0.13333333,0,0,-0.13333333,0,471.10667)" />
      <path
         id="path15"
         d="m 4809.75,1974.93 c 3.13,0 4.86,1.57 4.86,3.91 0,2.52 -1.89,3.93 -4.86,3.93 h -5.96 v -7.84 z m -12.85,10.19 c 0,2.04 1.56,3.61 3.45,3.61 h 9.86 c 6.75,0 11.45,-3.14 11.45,-9.41 0,-4.24 -2.19,-7.21 -5.64,-8.63 l 4.23,-5.17 c 0.78,-0.78 0.94,-1.57 0.94,-2.51 0,-1.88 -1.41,-3.29 -3.45,-3.29 -1.25,0 -2.04,0.63 -2.83,1.41 l -6.57,8.16 h -4.55 v -6.12 c 0,-1.88 -1.56,-3.45 -3.44,-3.45 -1.89,0 -3.45,1.57 -3.45,3.45 z m 35.42,-11.14 v 0.17 c 0,13.32 -10.34,24.29 -24.14,24.29 -13.64,0 -24.14,-11.13 -24.14,-24.46 v -0.15 c 0,-13.32 10.35,-24.3 24.14,-24.3 13.64,0 24.14,11.13 24.14,24.45 z m -51.41,-0.15 v 0.15 c 0,14.9 12.07,27.44 27.27,27.44 15.37,0 27.27,-12.38 27.27,-27.27 v -0.17 c 0,-14.89 -12.07,-27.43 -27.27,-27.43 -15.36,0 -27.27,12.39 -27.27,27.28"
         style="fill:#55c6f3;fill-opacity:1;fill-rule:nonzero;stroke:none"
         transform="matrix(0.13333333,0,0,-0.13333333,0,471.10667)" />
    </g>
    <g
       id="group-R5-0"
       transform="matrix(0.69019192,0,0,0.71633854,97.889095,124.70592)">
      <path
         id="path2-2"
         d="m 2273.31,1159.87 v 2.52 c 0,185.37 142.15,338.82 340.36,338.82 99.33,0 168.29,-28.83 223.54,-74.88 11.53,-9.53 27.76,-30.47 27.76,-60.24 0,-44.18 -35.97,-78.92 -80.15,-78.92 -22.78,0 -40.51,9.08 -51.1,17.31 -34.28,26.9 -70.06,44.84 -121.17,44.84 -96.27,0 -165.33,-84.33 -165.33,-184.5 v -2.43 c 0,-103.59 68.18,-186.66 172.3,-186.66 51.11,0 90.48,18.911 127.28,48.07 9.34,7.46 26.84,16.72 47.46,16.72 41.77,0 74.31,-33.78 74.31,-75.45 0,-23.172 -10.12,-41.64 -25.27,-55.48 -55.67,-50.86 -124.81,-85.871 -232.06,-85.871 -194.84,0 -337.93,150.73 -337.93,336.151"
         style="fill:#ffffff;fill-opacity:1;fill-rule:nonzero;stroke:none"
         transform="matrix(0.13333333,0,0,-0.13333333,0,309.38667)" />
      <path
         id="path3-4"
         d="m 4485.06,1408.07 c 0,48.7 38.96,87.98 87.69,87.98 48.77,0 88.01,-39.28 88.01,-87.98 V 919.129 c 0,-48.77 -39.24,-87.758 -88.01,-87.758 -48.49,0 -87.69,38.988 -87.69,87.758 v 488.941"
         style="fill:#ffffff;fill-opacity:1;fill-rule:nonzero;stroke:none"
         transform="matrix(0.13333333,0,0,-0.13333333,0,309.38667)" />
      <path
         id="path4-8"
         d="m 5591.78,823.719 c -193.65,0 -338.22,137.07 -338.22,336.451 v 2.44 c 0,185.82 132.09,338.6 320.58,338.6 214.69,0 312.19,-176.24 312.19,-314.81 0,-50.52 -36.33,-84.39 -82.29,-84.39 H 5428.3 c 17.68,-89.21 80.02,-136.612 165.94,-136.612 53.89,0 97.77,17.641 136.76,46.852 12.69,9.46 24.31,14.29 43.28,14.29 39.26,0 68.46,-30.169 68.46,-69.731 0,-22.879 -10.16,-40.778 -23.17,-52.348 -56.64,-50.641 -131.54,-80.742 -227.79,-80.742 z m 126.03,393.441 c -10.6,83.57 -61.11,142.52 -143.98,142.52 -80.14,0 -133.34,-56.9 -147.66,-142.52 h 291.64"
         style="fill:#ffffff;fill-opacity:1;fill-rule:nonzero;stroke:none"
         transform="matrix(0.13333333,0,0,-0.13333333,0,309.38667)" />
      <path
         id="path5-3"
         d="m 5153.42,1496.41 c -72.17,0 -130.65,-44.88 -166.51,-106.81 v 18.47 c 0,48.7 -39.31,87.98 -88,87.98 -48.69,0 -87.62,-39.28 -87.62,-87.98 V 919.129 c 0,-48.77 39.14,-87.758 87.62,-87.758 48.69,0 88,39.219 88,87.758 v 242.091 c 0,91.26 32.45,124.13 134.4,150.96 94.47,24.86 124.57,47.76 124.57,96.01 0,54.24 -37.32,88.22 -92.46,88.22"
         style="fill:#ffffff;fill-opacity:1;fill-rule:nonzero;stroke:none"
         transform="matrix(0.13333333,0,0,-0.13333333,0,309.38667)" />
      <path
         id="path6-9"
         d="m 3421.91,1232.62 c -71.6,23.99 -140.8,43.81 -139.43,81.1 v 2.45 c 0,27.61 29.51,41.94 76.82,42.1 39.24,0 84.26,-13.62 135.76,-39.23 11.66,-5.92 20.8,-8.64 34.14,-8.52 41.15,0.06 73.85,31.58 73.91,73.09 0.05,31.5 -17.23,55.96 -43.19,69.13 -62.83,32.09 -128.92,48.47 -197.05,48.47 -130.27,-0.09 -244.71,-70.44 -244.98,-202.59 v -2.37 c 0.12,-128.17 112.31,-169.6 202.42,-199.34 72.19,-23.29 144.32,-39.87 142.85,-79.42 v -2.4 c -0.05,-28.969 -31.38,-47.27 -86.42,-47.43 -52.42,0 -113.56,18.918 -174.88,57.59 -9.93,6.3 -23.21,10.02 -36.86,10.02 -41.19,-0.06 -72.56,-32.02 -72.67,-73.211 0,-29.239 15.82,-51.039 34.88,-63.137 78.55,-49.922 164.47,-75.203 245.08,-75.203 138.57,0.211 257.4,57.953 257.69,202.471 v 2.51 c -0.23,120.86 -111.03,170.66 -208.07,203.92"
         style="fill:#ffffff;fill-opacity:1;fill-rule:nonzero;stroke:none"
         transform="matrix(0.13333333,0,0,-0.13333333,0,309.38667)" />
      <path
         id="path7-0"
         d="m 4057.5,985.23 c -84.8,0 -152.07,73.66 -152.07,178.31 0,104.7 67.27,178.35 152.07,178.35 84.84,0 153.58,-73.65 153.58,-178.35 0,-104.65 -68.74,-178.31 -153.58,-178.31 z m 33.79,515.98 c -70.72,0 -135.45,-29.59 -185.14,-79.74 -6.44,42.35 -42.73,74.58 -86.85,74.58 -48.73,0 -87.7,-39.28 -87.7,-87.98 V 682.43 c 0,-48.668 39.24,-87.641 87.7,-87.641 48.71,0 88.01,38.973 88.01,87.641 v 222.09 c 49.51,-49.45 113.78,-78.59 183.98,-78.59 156.82,0 283.95,144.922 283.95,337.61 0,192.7 -127.13,337.67 -283.95,337.67"
         style="fill:#ffffff;fill-opacity:1;fill-rule:nonzero;stroke:none"
         transform="matrix(0.13333333,0,0,-0.13333333,0,309.38667)" />
      <path
         id="path8-5"
         d="m 1638.68,1347.99 412.39,493.1 c 21.21,24.83 31,51.85 28.71,79.77 -1.97,24.84 -13.77,47.8 -33.25,64.4 -17.63,14.92 -38.97,22.87 -61.36,22.87 -21.36,0 -52.32,-7 -80.64,-40.08 l -354.86,-401.73 74.73,315.94 c 8.46,31.88 5.63,60.23 -8.49,84.44 -12.38,21.8 -33.07,37.15 -57.89,43.8 -8.35,2.1 -16.61,3.28 -25,3.28 -35.93,0 -79.85,-21.1 -95.75,-80.65 l -85.58,-314.42 -138.79,613.62 c -12.65,64.95 -60.08,88.08 -96.72,88.08 -6.32,0 -12.65,-0.67 -18.96,-1.86 -38.56,-7.53 -67.5,-36.3 -75.42,-75.01 -3.02,-15.08 -2.87,-30.98 0.55,-48.38 l 121.98,-601.99 -151.42,195.17 c -28.805,38.56 -61.953,46.82 -84.844,46.82 -20.414,0 -39.832,-6.62 -56.605,-19.14 -31.531,-23.34 -45.082,-61.85 -35.398,-100.18 3.722,-14.79 10.46,-29.11 20.16,-42.2 l 147.968,-207.25 -427.73,212.08 c -18.852,9.82 -36.996,14.66 -55.383,14.66 -35.824,0 -67.512,-19.2 -84.086,-51.15 -11.722,-22.44 -14.379,-47.46 -7.308,-71.12 5.644,-18.66 19.648,-44.79 55.832,-63.62 L 888.418,1282.7 c 0,0 -781.93,27.87 -783.922,27.87 -66.4569,0 -102.80459,-47 -104.4374062,-93.53 -0.8749998,-25.52 8.0312462,-49.75 25.2930062,-68.15 18.7304,-19.96 45.4882,-31.24 76.5934,-32.17 l 790.09,-43.8 -181.164,-85.791 c -16.25,-7.207 -29.168,-16.25 -39.84,-27.418 -27.383,-28.481 -34.508,-68.57 -18.633,-104.551 15.629,-35.199 48.926,-56.789 87.395,-56.789 15.93,0 32.348,3.641 48.316,10.789 L 966.551,884.141 561.758,406.039 C 540.531,380.852 530.738,354 532.887,326.27 c 1.965,-25.04 13.804,-47.872 33.215,-64.59 17.765,-15.059 38.945,-23.18 61.554,-23.18 21.149,0 52.496,7.102 80.864,40.41 l 417.17,470.481 -67.39,-261.7 c -17.81,-67.632 20.22,-115.41 66.71,-127.73 8.24,-2.18 16.66,-3.281 24.86,-3.281 34.4,0 80.07,21.148 95.56,80.011 l 76.99,261.207 128.33,-609.5972 C 1463.2,23.1797 1510.63,0 1547.43,0 c 6.05,0 12.37,0.640625 18.7,1.94922 38.7,7.5625 67.58,36.06248 75.51,74.85158 3.03,14.6992 2.96,30.8012 -0.14,47.0082 l -117.11,624.703 224.39,-285.684 c 28.82,-38.828 62.09,-46.816 84.93,-46.816 20.36,0 39.9,6.429 56.76,19.117 31.61,23.402 45.15,62.043 35.41,100.312 -3.8,14.579 -10.85,28.899 -20.66,41.938 l -277.97,381.922 c 0,0 -31.85,47.119 -74.57,1.32 -59.42,-63.262 -140.88,-106.812 -234.61,-106.812 -172.12,0 -311.7,139.812 -311.7,311.881 0,172.11 139.58,311.69 311.7,311.69 103.38,0 194.94,-50.41 251.55,-128.04 0,0 35,-43.28 69.06,-1.35"
         style="fill:#ffffff;fill-opacity:1;fill-rule:nonzero;stroke:none"
         transform="matrix(0.13333333,0,0,-0.13333333,0,309.38667)" />
      <path
         id="path9-2"
         d="m 5898.6,1462.73 c 4.56,0 7.07,2.28 7.07,5.69 0,3.65 -2.75,5.69 -7.07,5.69 h -8.65 v -11.38 z m -18.67,14.8 c 0,2.96 2.28,5.24 5.01,5.24 h 14.34 c 9.79,0 16.63,-4.56 16.63,-13.67 0,-6.15 -3.19,-10.47 -8.2,-12.53 l 6.14,-7.51 c 1.14,-1.13 1.38,-2.27 1.38,-3.65 0,-2.72 -2.05,-4.77 -5.01,-4.77 -1.83,0 -2.97,0.91 -4.12,2.05 l -9.55,11.84 h -6.6 v -8.89 c 0,-2.72 -2.27,-5 -5.01,-5 -2.73,0 -5.01,2.28 -5.01,5 z m 51.46,-16.17 v 0.23 c 0,19.35 -15.02,35.29 -35.07,35.29 -19.81,0 -35.07,-16.17 -35.07,-35.52 v -0.23 c 0,-19.35 15.04,-35.3 35.07,-35.3 19.81,0 35.07,16.17 35.07,35.53 z m -74.68,-0.23 v 0.23 c 0,21.64 17.53,39.85 39.61,39.85 22.32,0 39.62,-17.99 39.62,-39.62 v -0.23 c 0,-21.63 -17.53,-39.85 -39.62,-39.85 -22.31,0 -39.61,17.99 -39.61,39.62"
         style="fill:#ffffff;fill-opacity:1;fill-rule:nonzero;stroke:none"
         transform="matrix(0.13333333,0,0,-0.13333333,0,309.38667)" />
    </g>
  </g>
</svg>
